<?xml version="1.0" encoding="UTF-8"?>
<svg width="48" height="48" viewBox="0 0 48 48" fill="none" xmlns="http://www.w3.org/2000/svg">
  <path d="M24 24C28.4183 24 32 20.4183 32 16C32 11.5817 28.4183 8 24 8C19.5817 8 16 11.5817 16 16C16 20.4183 19.5817 24 24 24Z" stroke="#1a5f7a" stroke-width="2"/>
  <path d="M24 24C24 28.4183 27.5817 32 32 32C36.4183 32 40 28.4183 40 24C40 19.5817 36.4183 16 32 16" stroke="#1a5f7a" stroke-width="2"/>
  <path d="M24 24C19.5817 24 16 27.5817 16 32C16 36.4183 19.5817 40 24 40C28.4183 40 32 36.4183 32 32" stroke="#1a5f7a" stroke-width="2"/>
  <circle cx="24" cy="24" r="4" fill="#1a5f7a"/>
</svg>